<svg width="24" height="25" viewBox="0 0 24 25" fill="none" xmlns="http://www.w3.org/2000/svg">
<g clip-path="url(#clip0_19_991)">
<path d="M9.24994 8.50006H1.74994C0.784973 8.50006 0 7.71509 0 6.74994V2.24994C0 1.28497 0.784973 0.5 1.74994 0.5H9.24994C10.2151 0.5 11.0001 1.28497 11.0001 2.24994V6.74994C11.0001 7.71509 10.2151 8.50006 9.24994 8.50006ZM1.74994 2C1.61206 2 1.5 2.11206 1.5 2.24994V6.74994C1.5 6.888 1.61206 7.00006 1.74994 7.00006H9.24994C9.388 7.00006 9.50006 6.888 9.50006 6.74994V2.24994C9.50006 2.11206 9.388 2 9.24994 2H1.74994Z" fill="#EB5401"/>
<path d="M9.24994 24.5001H1.74994C0.784973 24.5001 0 23.7151 0 22.7501V12.2501C0 11.285 0.784973 10.5 1.74994 10.5H9.24994C10.2151 10.5 11.0001 11.285 11.0001 12.2501V22.7501C11.0001 23.7151 10.2151 24.5001 9.24994 24.5001ZM1.74994 12C1.61206 12 1.5 12.1121 1.5 12.2501V22.7501C1.5 22.888 1.61206 23.0001 1.74994 23.0001H9.24994C9.388 23.0001 9.50006 22.888 9.50006 22.7501V12.2501C9.50006 12.1121 9.388 12 9.24994 12H1.74994Z" fill="#EB5401"/>
<path d="M22.2499 24.5001H14.7499C13.7847 24.5001 12.9998 23.7151 12.9998 22.7501V18.2501C12.9998 17.285 13.7847 16.5 14.7499 16.5H22.2499C23.2148 16.5 23.9998 17.285 23.9998 18.2501V22.7501C23.9998 23.7151 23.2148 24.5001 22.2499 24.5001ZM14.7499 18C14.6118 18 14.4998 18.1121 14.4998 18.2501V22.7501C14.4998 22.888 14.6118 23.0001 14.7499 23.0001H22.2499C22.3878 23.0001 22.4998 22.888 22.4998 22.7501V18.2501C22.4998 18.1121 22.3878 18 22.2499 18H14.7499Z" fill="#EB5401"/>
<path d="M22.2499 14.5001H14.7499C13.7847 14.5001 12.9998 13.7151 12.9998 12.7499V2.24994C12.9998 1.28497 13.7847 0.5 14.7499 0.5H22.2499C23.2148 0.5 23.9998 1.28497 23.9998 2.24994V12.7499C23.9998 13.7151 23.2148 14.5001 22.2499 14.5001ZM14.7499 2C14.6118 2 14.4998 2.11206 14.4998 2.24994V12.7499C14.4998 12.888 14.6118 13.0001 14.7499 13.0001H22.2499C22.3878 13.0001 22.4998 12.888 22.4998 12.7499V2.24994C22.4998 2.11206 22.3878 2 22.2499 2H14.7499Z" fill="#EB5401"/>
</g>
<defs>
<clipPath id="clip0_19_991">
<rect width="24" height="24" fill="white" transform="translate(0 0.5)"/>
</clipPath>
</defs>
</svg>
